<?xml version="1.0"?>
<svg xmlns="http://www.w3.org/2000/svg" xmlns:xlink="http://www.w3.org/1999/xlink" version="1.1" viewBox="0 0 172 172" width="50px" height="50px"><g fill="none" fill-rule="nonzero" stroke="none" stroke-width="1" stroke-linecap="butt" stroke-linejoin="miter" stroke-miterlimit="10" stroke-dasharray="" stroke-dashoffset="0" font-family="none" font-weight="none" font-size="none" text-anchor="none" style="mix-blend-mode: normal"><path d="M0,172v-172h172v172z" fill="none"/><g fill="#ffffff"><path d="M30.96,13.76c-9.4944,0 -17.2,7.7056 -17.2,17.2v110.08c0,9.4944 7.7056,17.2 17.2,17.2h110.08c9.4944,0 17.2,-7.7056 17.2,-17.2v-110.08c0,-9.4944 -7.7056,-17.2 -17.2,-17.2zM86,37.84c28.4488,0 51.6,18.43571 51.6,41.10531c0,9.0472 -3.58002,17.23977 -11.07922,25.28937c-5.4008,6.1232 -14.1685,12.86345 -22.2525,18.43625c-8.084,5.504 -15.51628,9.83652 -18.26828,10.97172c-1.1008,0.4472 -1.9264,0.65172 -2.58,0.65172c-2.2704,0 -2.06669,-2.40209 -1.89469,-3.39969c0.1376,-0.7568 0.75922,-4.34031 0.75922,-4.34031c0.172,-1.2728 0.34131,-3.29595 -0.17469,-4.56875c-0.5848,-1.4104 -2.88987,-2.13522 -4.57547,-2.47922c-24.768,-3.2336 -43.13437,-20.26509 -43.13437,-40.56109c0,-22.6696 23.1512,-41.10531 51.6,-41.10531zM82.53313,65.35328c-1.7331,0.03215 -3.41313,1.35477 -3.41313,3.44672v20.64c0,1.89888 1.54112,3.44 3.44,3.44c1.89888,0 3.44,-1.54112 3.44,-3.44v-9.90344l7.51828,11.8989c1.94704,2.72448 6.24172,1.35165 6.24172,-1.99547v-20.64c0,-1.89888 -1.54112,-3.44 -3.44,-3.44c-1.89888,0 -3.44,1.54112 -3.44,3.44v10.32l-7.51828,-12.31547c-0.73014,-1.02168 -1.78873,-1.47054 -2.82859,-1.45125zM51.6,65.36c-1.89888,0 -3.44,1.54112 -3.44,3.44v20.64c0,1.89888 1.54112,3.44 3.44,3.44h10.32c1.89888,0 3.44,-1.54112 3.44,-3.44c0,-1.89888 -1.54112,-3.44 -3.44,-3.44h-6.88v-17.2c0,-1.89888 -1.54112,-3.44 -3.44,-3.44zM72.24,65.36c-1.89888,0 -3.44,1.54112 -3.44,3.44v20.64c0,1.89888 1.54112,3.44 3.44,3.44c1.89888,0 3.44,-1.54112 3.44,-3.44v-20.64c0,-1.89888 -1.54112,-3.44 -3.44,-3.44zM106.64,65.36c-1.89888,0 -3.44,1.54112 -3.44,3.44v20.64c0,1.89888 1.54112,3.44 3.44,3.44h10.32c1.89888,0 3.44,-1.54112 3.44,-3.44c0,-1.89888 -1.54112,-3.44 -3.44,-3.44h-6.88v-3.44h6.88c1.90232,0 3.44,-1.54112 3.44,-3.44c0,-1.89888 -1.53768,-3.44 -3.44,-3.44h-6.88v-3.44h6.88c1.89888,0 3.44,-1.54112 3.44,-3.44c0,-1.89888 -1.54112,-3.44 -3.44,-3.44z"/></g></g></svg>
