<?xml version="1.0"?>
<svg xmlns="http://www.w3.org/2000/svg" xmlns:xlink="http://www.w3.org/1999/xlink" version="1.1" viewBox="0 0 172 172" width="50px" height="50px"><g fill="none" fill-rule="nonzero" stroke="none" stroke-width="1" stroke-linecap="butt" stroke-linejoin="miter" stroke-miterlimit="10" stroke-dasharray="" stroke-dashoffset="0" font-family="none" font-weight="none" font-size="none" text-anchor="none" style="mix-blend-mode: normal"><path d="M0,172v-172h172v172z" fill="none"/><g fill="#ffffff"><path d="M171.82456,64.27296c-0.3956,-1.18336 -1.40352,-2.064 -2.6316,-2.29448l-53.4748,-10.0276l-26.73224,-46.77712c-1.32096,-2.31168 -4.65088,-2.31168 -5.97184,0l-26.73224,46.78056l-53.4748,10.02416c-1.22808,0.23048 -2.236,1.10768 -2.6316,2.29448c-0.3956,1.1868 -0.11696,2.494 0.72584,3.41248l36.7736,40.11728l-6.6908,56.9148c-0.14448,1.2384 0.39216,2.4596 1.40352,3.18888c1.01136,0.73272 2.3392,0.86 3.46752,0.33024l50.1896,-23.42296l53.61584,23.45736c0.44376,0.19608 0.9116,0.28896 1.37944,0.28896c0.77056,0 1.53424,-0.258 2.15344,-0.76024c1.00104,-0.80152 1.46888,-2.09152 1.21776,-3.35056l-6.33304,-37.1692c9.84184,-6.88 12.94128,-12.0744 13.16832,-12.94128c0.3268,-1.23496 -0.05848,-2.54904 -1.00104,-3.41248c-0.45064,-0.41624 -0.9976,-0.68456 -1.57552,-0.81528c-55.78992,27.48904 -99.85288,13.82192 -100.50992,13.72904c-1.31408,-0.1892 -3.44,-1.0492 -3.44,-3.44c0,-1.20744 0.55384,-2.62128 1.60304,-3.44c13.44696,-10.52984 49.99696,-37.84 49.99696,-37.84c0,0 -17.1484,-6.85592 -51.6,-3.44c-1.55144,0.1548 -3.18544,-1.41728 -3.3368,-2.97904c-0.15824,-1.5996 0.17544,-3.00312 1.48264,-3.87344c0.8772,-0.58824 18.37648,-6.68392 50.01416,-6.90752c16.942,-0.1204 25.66928,6.54288 26.1268,6.8456c0.88752,0.59168 1.44824,1.56176 1.52392,2.62472c0.07568,1.06296 -0.35088,2.10184 -1.14552,2.81048l-36.91808,28.896c21.24888,7.8776 51.6688,3.51568 51.6688,3.51568l36.9628,-38.93048c0.83936,-0.91848 1.118,-2.22568 0.72584,-3.40904z"/></g></g></svg>
